<?xml version="1.0" encoding="utf-8"?>
<!-- Generator: Adobe Illustrator 28.0.0, SVG Export Plug-In . SVG Version: 6.00 Build 0)  -->
<svg version="1.1" id="Layer_1" xmlns="http://www.w3.org/2000/svg" xmlns:xlink="http://www.w3.org/1999/xlink" x="0px" y="0px"
	 viewBox="0 0 18 18" style="enable-background:new 0 0 18 18;" xml:space="preserve">
<g>
	<path d="M2,18c-0.5,0-1-0.2-1.4-0.6S0,16.6,0,16V2c0-0.5,0.2-1,0.6-1.4S1.5,0,2,0h14c0.6,0,1,0.2,1.4,0.6S18,1.5,18,2v14
		c0,0.6-0.2,1-0.6,1.4S16.6,18,16,18H2z M2,16h14V4H2V16z M9,14c-1.4,0-2.6-0.4-3.7-1.1C4.3,12.1,3.5,11.2,3,10
		c0.5-1.2,1.3-2.1,2.3-2.9S7.6,6,9,6c1.4,0,2.6,0.4,3.7,1.1S14.5,8.8,15,10c-0.5,1.2-1.3,2.1-2.3,2.9C11.6,13.6,10.4,14,9,14z
		 M9,12.5c0.9,0,1.8-0.2,2.6-0.7c0.8-0.4,1.4-1.1,1.8-1.8c-0.4-0.8-1-1.4-1.8-1.8C10.8,7.7,9.9,7.5,9,7.5S7.2,7.7,6.5,8.2
		C5.7,8.6,5.1,9.2,4.7,10c0.4,0.8,1,1.4,1.8,1.8C7.2,12.3,8.1,12.5,9,12.5z M9,11.5c0.4,0,0.8-0.1,1.1-0.4c0.3-0.3,0.4-0.6,0.4-1.1
		c0-0.4-0.1-0.8-0.4-1.1C9.8,8.6,9.4,8.5,9,8.5c-0.4,0-0.8,0.1-1.1,0.4C7.6,9.2,7.5,9.6,7.5,10c0,0.4,0.1,0.8,0.4,1.1
		C8.2,11.4,8.6,11.5,9,11.5z"/>
</g>
</svg>
