<?xml version="1.0" encoding="utf-8"?>
<!-- Generator: Adobe Illustrator 28.0.0, SVG Export Plug-In . SVG Version: 6.00 Build 0)  -->
<svg version="1.1" id="Layer_1" xmlns="http://www.w3.org/2000/svg" xmlns:xlink="http://www.w3.org/1999/xlink" x="0px" y="0px"
	 viewBox="0 0 396.75 396.86" style="enable-background:new 0 0 396.75 396.86;" xml:space="preserve">
<style type="text/css">
	.st0{fill:#FFFFFF;}
</style>
<g>
	<path class="st0" d="M225,0c5.27,1.14,10.57,2.13,15.8,3.43c25.14,6.24,48.12,17.21,69.34,31.95
		c14.17,9.84,26.79,21.41,38.23,34.33c4.07,4.59,9.55,7.89,12.53,13.51c0.28,0.54,0.61,1.05,1.35,2.32c-4.44,0-8.35-0.04-12.25,0.01
		c-13.99,0.18-27.98,0.49-41.97,0.56c-33.09,0.16-66.18,0.24-99.27,0.28c-5.56,0.01-5.81-0.46-5-6.08c0.09-0.62,0.28-1.22,0.52-2.19
		c29.72,0,59.53,0,89.33,0c0.13-0.43,0.26-0.85,0.4-1.28c-23.8-19.74-51.29-30.99-82.33-35.33c0,6.7,0,12.75,0,18.3
		c9.27,2.5,18.35,4.95,27.43,7.39c-0.08,0.43-0.17,0.86-0.25,1.29c-28.14,0-56.28,0-84.42,0c-0.08-0.36-0.16-0.72-0.24-1.08
		c3.37-1.18,6.69-2.59,10.13-3.49c4.77-1.25,9.67-1.99,14.45-3.22c1.09-0.28,2.66-1.64,2.71-2.58c0.26-5.21,0.13-10.45,0.13-16.53
		c-31.3,4.76-59.44,15.54-83.47,36.56c9.18,0,18.36,0.01,27.54,0c16.25-0.02,32.49-0.16,48.74,0.04c1.89,0.02,4.12,1.56,5.56,3.01
		c4.71,4.75,9.01,9.91,13.77,14.61c1.2,1.18,3.52,1.72,5.32,1.73c27.74,0.11,55.49,0.07,83.23,0.08c2.49,0,4.99,0.21,7.48,0.2
		c9.14-0.06,13.29,6.48,17.51,13.03c3.98,6.16,8.02,12.29,12.17,18.34c0.66,0.96,2.02,1.97,3.1,2.03c4.61,0.22,9.23,0.1,14.44,0.1
		c-5.38-12.79-13.05-23.58-21.96-34.5c6.21,0,11.88,0.3,17.49-0.1c3.69-0.26,5.94,0.73,7.79,4c3.24,5.72,6.92,11.19,10.52,16.95
		c2.64-1.13,5.5-2.35,8.88-3.79c-3.29-5.96-6.42-11.64-9.4-17.05c5.91,0,11.64-0.15,17.34,0.12c1.23,0.06,2.93,1.43,3.47,2.62
		c4.06,8.89,8.4,17.71,11.66,26.9c3.81,10.77,6.62,21.91,10.11,33.73c-6.22,0-11.19-0.07-16.15,0.03c-2.11,0.04-2.27-1.1-2.56-2.78
		c-2.03-11.84-5.43-23.28-10.38-34.2c-0.51,0.09-0.74,0.08-0.92,0.17c-7.9,3.72-7.71,3.66-5.2,11.98c2.4,7.97,4.34,16.08,6.67,24.81
		c-5.61,0-10.19,0.15-14.73-0.14c-0.82-0.05-1.84-1.79-2.24-2.94c-1.61-4.54-3.19-9.12-4.44-13.77c-0.79-2.95-2.45-3.44-5.2-3.37
		c-7.85,0.19-15.71,0.07-22.61,0.07c-6.55-10.44-12.72-20.42-19.11-30.25c-0.68-1.05-2.68-1.77-4.07-1.77
		c-30.74-0.01-61.48-0.13-92.21,0.38c-6.36,0.11-10.08-2.38-13.66-6.86c-3.5-4.37-7.34-8.48-11.26-12.47
		c-1.1-1.12-3.02-2.03-4.56-2.04c-27.35-0.12-54.71-0.12-82.06-0.01c-1.49,0.01-3.42,0.88-4.39,2.01
		c-4.47,5.18-8.64,10.61-13.01,15.88c-0.59,0.71-1.67,1.46-2.52,1.46c-15.37,0.09-30.74,0.06-47,0.06
		c3.6-6.09,6.65-11.87,10.26-17.27c30.17-45.16,71.83-73.73,124.7-85.98c5.13-1.19,10.32-2.15,15.48-3.21C189.5,0,207.25,0,225,0z"
		/>
	<path class="st0" d="M0,176.27c0.6-2.69,1.2-5.39,1.8-8.07c13.96,0,27.66,0,41.33,0c-0.51,9.72-1.01,19.22-1.53,29.03
		c24.92,0,49.12,0,73.59,0c0,11.55,0,22.83,0,34.47c-4.58,0-9.16,0-14.16,0c2.18,10.12,5.61,19.38,11.6,27.14
		c4.22,5.48,3.46,10.95,3.37,16.74c-0.31,0.24-0.63,0.49-0.94,0.73c-3.04-3.14-6.43-6.01-9.04-9.47
		c-7.26-9.66-11.45-20.78-14.54-32.37c-0.28-1.07-1.68-2.56-2.63-2.61c-4.72-0.27-9.46-0.12-14.88-0.12
		c0.92,3.9,1.49,7.52,2.64,10.94c7.23,21.57,18.15,40.6,37.44,53.8c0.73,0.5,1.29,1.75,1.33,2.68c0.15,3.48,0.06,6.97,0.06,10.48
		c-20.92-4.55-51.93-56.42-52.12-87.33c13.2,0,26.4,0,39.91,0c0-4.89,0-9.53,0-14.38c-20.34,0-40.63,0-61.77,0
		c0.8,7.14,1.28,14.05,2.39,20.86c4.18,25.56,15.13,48.14,31.05,68.37c3.61,4.59,7.86,8.69,11.98,12.85
		c0.82,0.83,2.39,1.29,3.62,1.29c20.73-0.08,41.47-0.29,62.2-0.36c1.07,0,2.31,0.73,3.19,1.47c8.5,7.13,17.61,12.97,28.96,14.28
		c1.47,0.17,2.94,0.42,4.82,0.7c0,22.95,0,45.98,0,69.45c-34.87-1.78-66.87-11.52-96.17-29.76c-36.84-22.94-63.24-54.75-80.06-95.39
		c5.22,0,9.98,0,14.92,0c0-2.65,0-4.86,0-7.45c-4.4,0-8.86-0.22-13.27,0.07c-3.29,0.21-5.11-0.8-5.82-4.09
		c-2.78-12.96-5.64-25.9-8.5-38.83c-0.12-0.56-0.51-1.06-0.77-1.59C0,205.28,0,190.77,0,176.27z"/>
	<path class="st0" d="M396.75,186.77c-0.52,1-1.46,1.99-1.48,3c-0.14,5.83-0.07,11.67-0.07,17.73c-27.28,0-54.19,0-81.37,0
		c0-3.25,0-6.52,0-10.17c1.42,0,2.76,0,4.1,0c20.98,0,41.95,0,62.93,0c4.08,0,6.53-4.14,4.34-7.62c-0.48-0.76-2.12-1.1-3.23-1.11
		c-9.85-0.08-19.71-0.05-30.03-0.05c-0.72-6.64-1.43-13.23-2.18-20.14c14.93,0,29.92,0,45.24,0c0.56,2.49,1.16,5.18,1.76,7.87
		C396.75,179.77,396.75,183.27,396.75,186.77z"/>
	<path class="st0" d="M211.44,354.39c72.75-6.22,134.67-67.11,139.77-138.88c14.5,0,29.03,0,43.46,0
		c-0.42,7.26-0.83,14.49-1.27,22.09c-8.99,0-17.82,0-26.78,0c-0.17,2.45-0.32,4.54-0.48,6.96c8.41,0,16.73,0,25.79,0
		c-1.1,4.13-1.77,7.9-3.1,11.41c-2.91,7.67-6.4,15.13-9.15,22.86c-1.53,4.31-3.71,5.79-8.36,5.54c-8.59-0.47-17.22-0.13-25.86-0.13
		c0,4.7,0,9.22,0,14.11c8.27,0,16.09,0,24.7,0c-16.04,27.18-37.37,48.22-62.72,65.3c-31.29,21.08-65.82,32.26-103.9,33.21
		c0-23.3,0-46.24,0-68.95c11.68-2.28,23.29-4.54,35.48-6.92c0,2.8,0.11,5.95-0.1,9.08c-0.04,0.53-1.39,1.21-2.23,1.42
		c-7.19,1.81-14.37,3.65-21.62,5.21c-2.77,0.59-3.94,1.59-3.72,4.62C211.68,345.64,211.44,350.01,211.44,354.39z"/>
	<path class="st0" d="M298.43,198.4c0,16.37,0.75,32.53-0.2,48.59c-1.08,18.38-10.91,32.13-26.38,41.76
		c-13.08,8.15-27.42,9.99-42.59,8.38c-12.61-1.34-23.66-5.42-32.22-15.03c-6.11-6.86-10.04-14.9-10.17-24.14
		c-0.45-31.6-0.57-63.2-0.84-94.79c-0.02-2.02,0.21-3.21,2.81-3.16c15.36,0.29,30.72,0.49,46.08,0.55
		c20.12,0.09,40.24,0.11,60.35-0.07c3.35-0.03,5.83,0.87,7.62,3.49c3.55,5.2,8.21,7.4,14.57,6.52c3.43-0.48,6.99,0.04,10.48-0.15
		c2.62-0.14,3.67,0.85,3.53,3.43c-0.11,1.87-0.02,3.74-0.02,6.2c-1.55,0-2.99,0-4.43,0c-38.99,0-77.97,0-116.96,0
		c-4.8,0-4.54,0-4.48,4.72c0.23,15.86,0.25,31.73,0.37,47.59c0.04,5.62,0.12,11.25,0.2,16.87c0.22,15,8.4,25.26,23.07,28.14
		c12.19,2.39,24.08,0.77,34.09-6.82c9.52-7.22,15.72-16.84,15.72-29.46c0-7.72,0-15.43,0-23.76c-16.84,0-33.32,0-50.88,0
		c5.56-6.69,10.34-12.51,15.23-18.22c0.53-0.62,1.72-0.94,2.61-0.94c16.99-0.04,33.99-0.01,50.98,0.02
		C297.34,198.11,297.69,198.24,298.43,198.4z"/>
	<path class="st0" d="M273.8,151.44c0-2.33,0.02-4.29,0-6.26c-0.04-4.24-1.32-5.51-5.63-5.52c-16.11-0.03-32.23-0.04-48.34-0.04
		c-31.22-0.01-62.45-0.02-93.67,0.02c-2.71,0-5.43,0.33-8.38,0.53c-0.22,3.74-0.42,7.18-0.62,10.64c-7.22,0-14.27,0-21.27,0
		c-3.27-16.33,4.77-28.82,20.79-29.17c23.09-0.51,46.19-0.56,69.29-0.63c26.23-0.09,52.47-0.06,78.7,0.08
		c8.15,0.04,16.4-0.12,23.28,5.77c3.89,3.33,6.26,7.4,7.3,12.19c0.69,3.13,0.71,6.45,0.67,9.68c-0.01,0.91-1.28,2.57-2.01,2.6
		C287.34,151.53,280.75,151.44,273.8,151.44z"/>
	<path class="st0" d="M147.55,299.52c-6.21,0-12.16,0-19,0c0-19.8,0-39.37,0-58.95c0-19.59,0-39.17,0-59.07c-11.4,0-22.47,0-33.35,0
		c-0.31-0.51-0.53-0.71-0.55-0.92c-0.57-9.67-0.57-9.65,8.97-9.62c9.35,0.03,18.7,0.01,28.39,0.01c0.35-3.9,0.66-7.32,0.99-10.93
		c4.76,0,9.46,0,14.54,0C147.55,206.42,147.55,252.83,147.55,299.52z"/>
	<path class="st0" d="M78.19,140.13c-15.97,0-31.94,0-47.91,0c-3.5,0-7-0.01-10.5,0c-5.7,0.02-6.04,0.44-5.19,6.72
		c11.25,0,22.55,0,34.38,0c-1.29,4.75-2.44,8.98-3.65,13.41c-13.93,0-27.88,0-42.54,0c1.37-5.75,2.39-11.43,4.12-16.89
		c2.53-8.02,5.48-15.92,8.5-23.77c0.43-1.12,2.24-2.4,3.43-2.41c14.12-0.16,28.24-0.1,42.36-0.09c0.36,0,0.72,0.15,1.08,0.23
		c-0.99,6.16-2.93,7.89-8.73,7.89c-9.62,0-19.24-0.01-28.86,0c-5.43,0.01-5.43,0.03-5.03,6.11c1.18,0,2.4,0,3.62,0
		c15.12,0,30.24-0.06,45.36,0.04c2.52,0.02,4-0.71,5.41-2.92c5.42-8.45,11.29-16.61,16.67-25.09c3.07-4.83,7.69-5.54,12.54-5.61
		c11.24-0.14,22.48-0.05,33.72,0.13c0.81,0.01,2.19,1.43,2.3,2.31c0.92,7.75,0.85,7.76-7.06,7.76c-10.62,0-21.24-0.11-31.86,0.11
		c-1.66,0.04-3.9,1.17-4.83,2.52c-5.26,7.65-10.25,15.49-15.21,23.33c-0.96,1.52-1.44,3.35-2.14,5.03
		C78.17,139.35,78.18,139.74,78.19,140.13z"/>
	<path class="st0" d="M320.65,231.23c3.24,0.21,6.07,0.39,9.44,0.6c-2.36,17.22-8.93,32.49-18.35,46.57
		c-14.47,21.62-33.73,37.39-58.29,47.41c0-4.13-0.31-7.74,0.17-11.23c0.16-1.16,2.18-2.38,3.6-3.02
		c11.91-5.39,22.45-12.78,31.72-21.92c15.36-15.14,25.46-33.31,30.61-54.24C319.86,234.1,320.23,232.8,320.65,231.23z"/>
	<path class="st0" d="M72,170.39c3.61,0,5.95,0,8.62,0c0,3.39,0,6.52,0,9.92c-6.05,0-11.98,0-19.02,0c1.29-7.53,2.5-15.04,3.9-22.52
		c0.45-2.41,1.54-4.7,2.02-7.11c0.62-3.03,2.27-4.08,5.25-3.65c1.53,0.22,3.11,0.04,4.84,0.04C75.68,155.09,73.92,162.4,72,170.39z"
		/>
	<path class="st0" d="M316.22,147.63c8.58-1.59,10.5,0.18,12.82,11.88c-2.05,0.17-4.08,0.46-6.11,0.44
		c-0.65-0.01-1.61-0.67-1.89-1.28C319.38,155.13,317.88,151.5,316.22,147.63z"/>
</g>
</svg>
