<?xml version="1.0" encoding="utf-8"?>
<!-- Generator: Adobe Illustrator 28.0.0, SVG Export Plug-In . SVG Version: 6.00 Build 0)  -->
<svg version="1.1" id="Layer_1" xmlns="http://www.w3.org/2000/svg" xmlns:xlink="http://www.w3.org/1999/xlink" x="0px" y="0px"
	 viewBox="0 0 2256.1 1269.5" style="enable-background:new 0 0 2256.1 1269.5;" xml:space="preserve">
<style type="text/css">
	.st0{display:none;fill:#5A85B2;}
	.st1{fill:#F8F407;}
	.st2{fill:#252941;}
</style>
<g>
	<path id="Background" class="st0" d="M2257.9,651.1c-5.7,29.3-9.6,72.1-0.4,129c-4.3,0.9-6.4,4.3-8.3,8.2c-4.4,9.2-5.9,19-5.9,29.3
		c0.1,111.6,0,223.2,0.2,334.8c0,11.4-3.1,20.4-10.3,28.3c-19,20.9-37.9,41.9-56.6,63.1c-7,7.9-14.7,11.5-25.1,11.5
		c-228.5-0.3-457-0.2-685.5-0.2c-19.2,0-38.6-1.2-57.6,2.5c-8.6,1.7-18.8,1.1-22.7,13.2c-5.6,0.2-11.2,0.4-16.8,0.4
		c-166.7,0-333.3,0-500,0c-6,0-11.9-0.3-17.9-0.5c-2.5-8.8-9.6-12.3-16.2-12.8c-10.1-0.7-20-3.1-30.2-3.1
		c-238.3,0.2-476.7,0.1-715,0.4c-13.3,0-23.5-4.1-32.6-14.9c-15.9-18.8-32.2-37.3-49.2-54.8c-10.8-11.1-14.5-23.9-14.5-39.6
		c0.2-110.4,0.1-220.9,0.1-331.3c0-3.1,0.4-6.4-0.1-9.4c-1.5-9.1-2.3-18.9-11.7-23.1c-0.2-35.6-0.5-71.1-0.4-106.7
		c0-29.3-0.7-58.6,0.6-87.9c5.8-4.9,5.4-12.1,5.4-19c0-58.4,0.2-116.7-0.1-175.1c-0.1-13.1,4-23.5,12.2-32.4
		c7-7.7,13.9-15.5,20.8-23.3c6-6.8,11.8-14.6,12.8-23.8c1.2-10,2.8-20,2.8-30.2c-0.2-74.8,0.2-149.6-0.3-224.4
		c-0.1-8.9,1.5-16.6,4.9-23.5c0,0,2.7-5.5,6.9-10.2C114-50.1,826.9,4.8,826.9,4.8c308.7,23.8,603,1.9,684.1-4.4
		c187-14.5,374.9,38,562,25.8c25.8-1.7,101.4-7.2,128.2,33.4c35,53.2-0.1,206.5-0.1,238.5c0,12.9,3.2,24.2,10.4,34.7
		c6.4,9.5,13.7,17.9,21.6,25.6c12.4,12,16.9,26.8,16.6,44.6c-0.4,29,3.6,58.2-0.1,86.9c-3,22.9-2.2,20.8-2,27.7
		c1,30.6,12.1,44.3,17,66.6C2269.8,608.9,2263.1,624.2,2257.9,651.1z"/>
	<path class="st1" d="M1324.5,102.4c-3.2,1.6-6.6,0.9-9.8,0.9c-123.1,0-246.1,0-369.2,0c-3.6,0-7.4,0.6-10.9-0.9
		c0-3.9-3.5-5.4-5.7-7.6c-28.7-28.8-57.5-57.5-86.2-86.3c-2.6-2.6-4.9-5.4-7.3-8.1c3.3-0.1,6.7-0.3,10-0.3c189.4,0,378.9,0,568.3,0
		c3.3,0,6.7,0.2,10,0.4c-2.4,2.7-4.8,5.5-7.3,8.1c-28.5,28.5-57,56.9-85.4,85.5C1328.5,96.4,1324.8,98.1,1324.5,102.4z"/>
	<path class="st1" d="M2229.9,446.6c1.5-21,1.5-20.9-13.1-35.7c-5.9-5.9-13.6-11-16.9-18.1c-3.5-7.5-1-17.1-1-25.7
		c-0.1-67.1-0.1-134.1,0.1-201.2c0-6.1-1.5-10.5-6-14.9c-28.8-28.3-57.3-56.9-85.7-85.6c-4.3-4.4-8.6-6.2-14.9-6.2
		c-53.1,0.2-106.2,0-159.3,0.3c-6.1,0-10.6-1.5-15-6c-8.5-8.9-16.9-18-26.4-25.9c-2.1-2.5-5-1.4-7.5-1.4
		c-72.3,0-144.6,0.1-216.9,0.1c-4,0-8-0.3-12-0.5c-8-8.4-16-16.8-23.9-25.2c3.3-0.1,6.7-0.4,10-0.4c159.2,0,318.4,0,477.7,0
		c3,0,6,0.2,9,0.3c1.3,3.2,4,5.3,6.4,7.6c38.6,38.6,77.1,77.1,115.7,115.6c2.3,2.3,4.9,4.4,7.4,6.6c0.1,3.7,0.4,7.3,0.4,11
		c0,160.1,0,320.2,0,480.3c0,4.3-0.2,8.7-0.3,13c-10.1-7.6-17.6-17.8-27.3-25.9c0-47.7,0-95.3-0.1-143
		C2230.3,459.3,2230.1,452.9,2229.9,446.6z M2242.8,594.7c2.1-3.8,1.6-6.5,1.7-9.1c0.8-144.5,1.5-288.9,2.4-433.4
		c0-6.2-1.7-10.5-6.1-14.9c-39.9-39.9-79.6-79.9-119.1-120.2c-5.1-5.2-10.3-7.2-17.5-7.1c-142.2,0.2-284.5,0.1-426.7,0.1
		c-2,0-4-0.1-6,0c-1.8,0.1-4.2-0.7-4.8,2.8c3.6,1.9,7.6,0.9,11.3,0.9c141.9,0.1,283.8,0.1,425.7-0.1c6.4,0,11.1,1.5,15.8,6.3
		c39,39.8,78.3,79.4,117.7,118.8c4.4,4.4,6.1,8.7,6.1,14.9c-0.8,112.4-1.3,224.9-2,337.3c-0.2,31-0.4,62.1-0.5,93.1
		C2240.7,587.3,2239.8,590.7,2242.8,594.7z M2206.4,155.6c-0.6,0.3-1.3,0.6-1.9,0.9c0,6.3,0,12.6,0,18.8c0,2,0.1,3.9,1.7,5.5
		c7.5,7.3,14.4,15.3,23.9,23c0-8.1,0-14.6,0-21.1c0-2.1-0.5-3.9-2.1-5.4C2220.8,170.1,2213.6,162.8,2206.4,155.6z M2204.5,199.8
		c0,8.7-0.1,14.9,0,21.1c0,1.6,0.2,3.3,0.8,4.8c1.3,3,20.5,20.4,24.8,22.6c0-6.5,0-12.8,0-19c0-2-0.1-3.9-1.7-5.5
		C2221,216.3,2213.6,208.9,2204.5,199.8z M2205.4,243.1c-0.5,2.5-0.8,3.4-0.9,4.3c-0.6,19.7-0.7,19.7,13.3,33.6
		c3.6,3.5,6.6,7.9,12.3,10.6c0-7.1,0-13,0-19c0-2,0.3-4.1-1.2-5.7C2221.3,259.1,2213.7,251.5,2205.4,243.1z M2009.3,27
		c0.6,1.3,0.7,2.1,1.1,2.5c4.9,5,9.8,9.9,14.8,14.8c3.9,3.9,7.1,8.8,14,7.7c5.5-0.9,11.4,1,19-1.7c-4.9-4.2-8.5-7.1-11.8-10.4
		c-14.4-14.2-14.4-14.3-34.5-13.7C2011.2,26.3,2010.6,26.6,2009.3,27z M2227.4,388.7c0.9-0.5,1.8-1,2.8-1.5c0-6.2,0-12.5,0-18.7
		c0-1.7,0.1-3.4-1.2-4.7c-7.6-7.7-14.7-15.8-24.5-23.6c0,8,0,14.2,0,20.5c0,2.5,0.7,4.5,2.4,6.3
		C2213.7,374.2,2220.5,381.5,2227.4,388.7z M1963.3,27.3c0,0-0.2,1.1,0.5,1.8c6.8,6.9,13.6,13.7,20.4,20.6c1.2,1.2,2.5,2.1,4.4,2.1
		c6.8,0,13.7,0,21.7,0c-2.8-5.2-6.7-7.4-9.1-10.8C1991.9,28.3,1979.8,22.8,1963.3,27.3z M2102.4,51c-8.1-8.1-15.3-15.3-22.5-22.5
		c-1.4-1.4-3.2-2.2-5.3-2.2c-6.5,0.1-13,0-20.6,0c2.6,5.5,6.5,8.1,9.6,11.2c15,15.1,15,15.1,36,14.2
		C2099.8,51.7,2100.1,51.6,2102.4,51z M2227.5,338.1c0.9-0.5,1.7-1,2.6-1.5c0-6.3,0-12.5,0-18.8c0-1.7,0-3.5-1.2-4.7
		c-7.6-7.5-14.5-15.9-24.4-23.2c0,7.8,0.1,14.1,0,20.3c0,2.5,0.9,4.4,2.6,6.2C2213.9,323.6,2220.7,330.9,2227.5,338.1z M1961.2,51.9
		c-9.2-9.2-16.6-16.6-24.1-24c-1.2-1.2-2.8-1.6-4.6-1.6c-6.5,0-13,0-21.1,0c7.6,9.8,15.7,16.6,23.1,24.1c1.2,1.3,2.9,1.5,4.6,1.5
		C1945.5,51.9,1952.1,51.9,1961.2,51.9z M2213.3,140.5c1-2-0.9-2.8-1.9-3.9c-4.2-4.3-8.5-8.5-12.7-12.8
		C2171.8,97,2145,70.1,2118,43.3c-1.7-1.6-2.9-5.6-5.9-4.1C2145.8,73,2179.6,106.7,2213.3,140.5z"/>
	<path id="Corner_left_inner" class="st1" d="M365.3,27.6c-8.6,8.4-17.4,16.5-25.7,25.2c-4.5,4.7-9.1,6.6-15.7,6.6
		c-52.7-0.3-105.4,0-158.1-0.3c-6.9,0-11.7,2-16.6,6.9c-28.1,28.5-56.4,56.8-84.9,84.9c-4.4,4.3-6.2,8.6-6.2,14.8
		c0.2,72.3,0,144.7,0.3,217c0,7.7-2,13.2-7.7,18.2c-6.3,5.4-11.7,11.9-17.9,17.5c-4.6,4.1-7.1,8.5-6.2,14.8c0.5,3.9,0.3,8,0.5,12
		c-0.1,3.3-0.3,6.6-0.3,9.9c0,47.5,0,95.1,0,142.6c0,4,0.4,8-0.7,11.9c-8.6,8.2-17.2,16.3-25.9,24.5c-0.3-1.2-0.7-2.5-1-3.7
		c0.2-4,0.5-8,0.5-11.9c0-158.6,0-317.2,0-475.8c0-4.3,0.2-8.6,0.4-13c1.3-1,2.8-1.8,3.9-3c40.1-40,80.2-80.1,120.3-120.2
		c1.9-1.9,4-3.6,4.8-6.3c3.7-0.1,7.3-0.3,11-0.3c157.9,0,315.7,0,473.6,0c4,0,8,0.3,12,0.4c-8,8.5-16,16.9-24,25.4
		c-2.7,0.1-5.3,0.4-8,0.4c-73,0-145.9-0.1-218.9,0C371.6,26.2,368,24.8,365.3,27.6z M592.1,12.2c-5-3-8.7-2-12.2-2
		c-142.2-0.1-284.5,0-426.7-0.2c-7.8,0-13,2.5-18.2,7.9C95.9,57.6,56.7,97.2,17.2,136.6c-5.2,5.2-7,10.4-7,17.6
		c0.9,119.8,1.5,239.6,2.1,359.4c0.1,23.7,0.1,47.4,0.3,71.1c0,3-1,6.5,2.3,9.9c2.3-4.5,1.4-8.5,1.4-12.2
		c-0.7-142.5-1.4-285-2.4-427.4c0-6.9,1.9-11.7,6.8-16.6C59,100,97.1,61.6,134.9,23c6.3-6.4,12.4-9.3,21.6-9.2
		C297.4,14,438.4,14,579.3,13.9C583,13.9,587,14.8,592.1,12.2z M155.5,50.2c1.3,1.1,1.5,1.4,1.8,1.4c20.9,1.5,20.9,1.6,35.5-13.2
		c3.5-3.6,8.1-6.5,10.4-12.2c-7,0-12.9,0.1-18.9,0c-3.2-0.1-5.7,0.9-8,3.2C169.6,36.3,162.7,43,155.5,50.2z M52.5,288.7
		c-9.2,9.2-16.6,16.6-23.9,24.1c-0.8,0.9-1.3,2.4-1.4,3.6c-0.1,6.8-0.1,13.7-0.1,22c9.6-7.7,16.5-15.6,23.9-23.1
		c0.8-0.8,1.3-2.4,1.3-3.6C52.6,304.9,52.5,298.1,52.5,288.7z M27.2,389c9.5-7.6,16.1-15.4,23.4-22.4c1.3-1.2,1.9-2.7,1.9-4.4
		c0-6.8,0-13.6,0-22.9c-9,8.9-16.2,16.1-23.3,23.3c-1.2,1.2-2,2.7-2,4.4C27.2,373.8,27.2,380.7,27.2,389z M296.1,51.1
		c24.2,2,24.2,2,39.1-13c3.3-3.4,7.5-6.2,10.1-11.9c-7.6,0-13.8,0.1-20.1,0c-2.5,0-4.5,0.9-6.2,2.6
		C311.9,35.8,304.8,42.7,296.1,51.1z M200.5,49.4c0.5,0.8,1,1.7,1.5,2.5c5.6,0,11.2,0.1,16.8,0c2,0,4.5,0.3,5.8-0.8
		c8.4-7.2,16.1-15.1,25-24.8c-8.8,0-15,0.1-21.3,0c-2.5,0-4.4,0.9-6.2,2.6C215,35.8,207.8,42.6,200.5,49.4z M245.4,51.9
		c9.1,0,15.6,0,22.1,0c1.7,0,3.4-0.2,4.6-1.5c7.3-7.5,15.4-14.3,23.1-24.1c-8.1,0-14.6,0-21.1,0c-1.7,0-3.3,0.4-4.6,1.6
		C262.1,35.3,254.7,42.7,245.4,51.9z M145.8,39.7c-0.5-0.5-1-1-1.5-1.5C110.9,71.6,77.5,105,44.2,138.4c-0.9,0.9-0.5,1.8,0.2,2.6
		C51.2,137.1,141.7,46.8,145.8,39.7z M27.3,201.2c1.2,0.2,2.2,0.6,2.4,0.4c7-6.7,13.9-13.5,20.8-20.3c1.2-1.2,2-2.6,2-4.4
		c0-6.8,0-13.6,0-22.8C43.6,163,36.6,170,29.6,177c-1.8,1.8-2.2,4-2.2,6.4C27.4,189.3,27.3,195.3,27.3,201.2z M52.1,200.7
		c-7.2,7.1-13.1,12.9-18.9,18.6c-1.4,1.4-2.9,2.8-4.1,4.3c-0.8,1-1.5,2.3-1.6,3.6c-0.1,6.8-0.1,13.6-0.1,19.6c1.9,1.2,2.4,1,3,0.4
		c2.6-2.6,5.3-5.1,7.9-7.7C53.3,224.7,53.3,224.7,52.1,200.7z M28.7,291.7c8.1-8.2,15.3-15.4,22.4-22.7c0.8-0.9,1.3-2.4,1.3-3.6
		c0.1-6.8,0.1-13.6,0.1-22.7c-5.2,5.1-8.7,8.5-12.2,12c-14.1,14.1-14.1,14.1-12.7,33.9C27.7,288.9,27.9,289.2,28.7,291.7z"/>
	<path class="st1" d="M0.7,813c6.9,6.8,13.6,13.8,20.7,20.3c4.2,3.9,6,8.2,5.9,14c-0.3,26-0.1,52-0.1,78c0,73.7,0.1,147.4-0.1,221.1
		c0,7.1,1.7,12.4,7,17.5c24.4,23.7,48.4,47.8,72.2,72.1c5.1,5.2,10.2,7.1,17.4,7.1c233.3-0.2,466.6-0.1,699.8-0.3
		c9.1,0,15.9,2,21.7,9.1c5.1,6.2,11.1,11.5,16.7,17.2c-0.7,0.7-1.5,1.4-2.2,2.1c-3.3-0.2-6.6-0.4-10-0.4c-280,0-560,0-840,0
		c-3,0-6,0.2-9,0.3c-1.7-4.2-1-8.6-1-12.9c0-143,0-286.1,0-429.1c0-4-0.3-8-0.5-11.9c0.4-1.3,0.7-2.6,1.1-3.9
		C0.2,813.2,0.7,813,0.7,813z M12,838.4c-2.5,5.1-1.7,8.8-1.7,12.4c0,132.5,0,264.9,0,397.4c0,13.8-1.6,12.7,13,12.7
		c261.4,0,522.9,0,784.3,0c2.3,0,4.7,0.1,7,0c1.8-0.1,4.3,0.4,4.3-2.8c-4.1-1.7-8.5-0.8-12.8-0.8c-259.8,0-519.5,0-779.3,0
		c-3,0-6,0-9,0c-2.5,0-3.7-1.3-3.7-3.7c-0.1-2.7-0.1-5.3-0.1-8c0-39.4,0-78.7,0-118.1c0-92.1,0-184.2-0.1-276.3
		C14,847.4,15.1,843.4,12,838.4z M27.8,1184.6c0,17.5,0.1,35.4,0,53.2c0,3.9,1.8,5.2,5.5,5.1c10.3-0.1,20.6,0,30.9,0
		c7.5,0,15,0,21.9,0C66.7,1223.4,47.5,1204.3,27.8,1184.6z"/>
	<path class="st1" d="M1395.4,1271.1c3.5-7.9,11.3-12,16.3-18.5c5.8-7.4,12.9-9.6,22.4-9.6c232.9,0.3,465.8,0.2,698.7,0.4
		c7.5,0,13-1.9,18.4-7.4c24-24.6,48.4-48.8,72.9-72.9c4.4-4.3,6.1-8.6,6.1-14.8c-0.2-99.4-0.1-198.7-0.3-298.1
		c0-7.5,1.4-13.5,7.5-18.3c7.3-5.6,11.9-14.4,20.6-18.4c-0.1,4.3-0.2,8.7-0.2,13c0,144.1,0,288.2,0,432.2c0,13.5,1.2,12.2-12.5,12.2
		c-278.7,0-557.4,0-836,0C1404.8,1270.9,1400.1,1271,1395.4,1271.1z M2245.2,839.2c-3.4,3.8-2,8-2,11.7
		c-0.1,131.1-0.1,262.2-0.1,393.3c0,15,1.4,12.9-12.6,12.9c-259.4,0-518.8,0-778.1,0c-3.3,0-6.7-0.1-10,0.1
		c-1.4,0.1-3.5-0.5-3.3,2.7c3.6,1.8,7.6,0.9,11.4,0.9c261.4,0,522.8,0,784.2,0c2,0,4-0.2,6,0c4.9,0.4,6.3-1.9,6.2-6.5
		c-0.2-13.3-0.1-26.7-0.1-40c0-121.1,0-242.2-0.1-363.3C2246.8,847.3,2247.9,843.2,2245.2,839.2z M2229.7,1182.1
		c-8.6,6.6-14.5,13.7-21,20c-6.7,6.5-13.4,13-19.7,19.8c-6.2,6.5-13.6,12-19.2,21c19.3,0,37.2,0,55.1,0c3.3,0,4.9-1.3,4.9-4.7
		C2229.7,1220,2229.7,1201.9,2229.7,1182.1z"/>
	<path class="st1" d="M909.1,102.3c-7.2,2.1-14.5,0.8-21.8,0.9c-12.3,0.2-24.6,0-37,0.1c-3.4,0-6.4-0.3-9.1-3
		C808.2,67,775.1,33.7,742,0.5c22.7-0.8,45.3-0.6,68-0.1c-0.2,4.4,3.5,6.1,6,8.6C846.9,40.1,878,71.2,909.1,102.3z"/>
	<path class="st1" d="M1517,0.5c-3.6,3.9-7.2,7.8-10.9,11.6c-28.2,28.2-56.5,56.4-84.6,84.7c-4.5,4.5-9,6.9-15.6,6.7
		c-15.6-0.5-31.3-0.1-46.9-0.2c-2.9,0-6,0.7-8.8-1c2.5-2.6,5-5.3,7.6-7.9c28.4-28.5,56.9-56.9,85.3-85.4c2.4-2.5,6.2-4.2,5.9-8.6
		C1471.7-0.2,1494.4-0.3,1517,0.5z"/>
	<path class="st1" d="M2257.6,70.5c0.6,12.2,0.9,24.4-0.1,36.6c-27-26.8-54-53.6-80.9-80.4c-8.7-8.7-17.3-17.6-25.9-26.4
		c12.4,0,24.9,0,37.3-0.1c1.1,3.3,4,5.3,6.3,7.7c10.3,10.4,20.7,20.9,31.2,31.1C2236.1,49.6,2246.1,60.7,2257.6,70.5z"/>
	<path class="st1" d="M69.6,0.3c12.3-0.5,24.6-0.6,37,0c-1.3,1.5-2.5,3.1-3.9,4.5C70,37.5,37.4,70.1,4.8,102.7
		c-1.4,1.4-3,2.5-4.6,3.7c-0.3-0.3-0.6-0.5-1-0.6c0.9-11.7,0.7-23.5,0.1-35.2c0.2-0.2,0.5-0.4,0.8-0.6c0.8-0.5,1.7-1,2.4-1.6
		C23.7,47.3,44.8,26.2,66,5C67.3,3.6,68.4,1.9,69.6,0.3z"/>
	<path class="st2" d="M0.2,106.4c1.5-1.2,3.2-2.3,4.6-3.7C37.4,70.1,70,37.5,102.7,4.8c1.4-1.4,2.6-3,3.9-4.5c7.5,0,15-0.1,22.5-0.1
		c-0.8,2.7-3,4.4-4.8,6.3C84.1,46.6,44.1,86.7,4,126.7c-1.1,1.1-2.6,2-3.9,3c-0.2-0.5-0.6-0.7-1.1-0.7c0.1-0.4,0.3-0.9,0.3-1.3
		c0-0.2-0.3-0.3-0.5-0.5c1.5-5.5,1.2-11.1,0.2-16.7C-0.6,109.1-0.2,107.7,0.2,106.4z"/>
	<path class="st2" d="M909.1,102.3C878,71.2,846.9,40.1,816,9c-2.4-2.5-6.2-4.2-6-8.6c8.5-0.5,17-0.5,25.5,0
		c2.4,2.7,4.8,5.5,7.3,8.1c28.7,28.8,57.5,57.5,86.2,86.3c2.2,2.2,5.6,3.7,5.7,7.6C926.1,103.2,917.6,103.2,909.1,102.3z"/>
	<path class="st2" d="M1449,0.3c0.3,4.4-3.5,6.2-5.9,8.6c-28.4,28.5-56.9,56.9-85.3,85.4c-2.6,2.6-5,5.3-7.6,7.9
		c-8.6,0.9-17.1,0.9-25.7,0.1c0.2-4.2,4-5.9,6.4-8.4c28.4-28.6,56.9-57,85.4-85.5c2.6-2.6,4.9-5.4,7.3-8.1
		C1432.1-0.2,1440.6-0.2,1449,0.3z"/>
	<path class="st2" d="M2150.6,0.4c8.6,8.8,17.1,17.7,25.9,26.4c26.9,26.8,54,53.6,80.9,80.4c1,7.7,0.8,15.3,0.2,23
		c-2.5-2.2-5.1-4.3-7.4-6.6C2211.6,85,2173,46.5,2134.5,7.9c-2.3-2.3-5-4.4-6.4-7.6C2135.6,0.3,2143.1,0.3,2150.6,0.4z"/>
	<path class="st2" d="M2257.6,70.5c-11.4-9.8-21.5-21-32.2-31.5c-10.5-10.3-20.8-20.7-31.2-31.1c-2.3-2.3-5.2-4.3-6.3-7.7
		c7.3,0,14.6,0,22,0.1c15.2,16.5,31.2,32.3,47.6,47.7C2258.3,55.5,2258.3,63,2257.6,70.5z"/>
	<path class="st2" d="M69.6,0.3C68.4,1.9,67.3,3.6,66,5C44.8,26.2,23.7,47.3,2.5,68.4C1.9,69,0.9,69.5,0.1,70
		c-0.4-1.5-0.8-3-1.2-4.4c1.7-5.8-0.2-11.9,1.2-17.8C16.3,32.4,32.3,16.9,47.4,0.4C54.8,0.4,62.2,0.3,69.6,0.3z"/>
	<path class="st1" d="M2257.5,48.1c-16.3-15.4-32.4-31.2-47.6-47.7c13.9-0.1,27.9-0.1,41.8-0.4c4.8-0.1,6.4,1.6,6.3,6.4
		C2257.7,20.2,2257.7,34.1,2257.5,48.1z"/>
	<path class="st1" d="M47.4,0.4c-15,16.5-31,32-47.2,47.4C-0.6,31.9-0.7,15.9,0.2,0C15.9,0.1,31.7,0.3,47.4,0.4z"/>
	<path class="st2" d="M2242.8,594.7c-3-4-2.1-7.4-2.1-10.5c0.1-31,0.3-62.1,0.5-93.1c0.6-112.4,1.2-224.9,2-337.3
		c0-6.2-1.7-10.5-6.1-14.9c-39.4-39.4-78.6-79-117.7-118.8c-4.7-4.7-9.4-6.3-15.8-6.3C1961.8,14,1819.9,14,1678,13.9
		c-3.8,0-7.7,0.9-11.3-0.9c0.6-3.5,3-2.6,4.8-2.8c2-0.1,4,0,6,0c142.2,0,284.5,0.1,426.7-0.1c7.2,0,12.4,1.9,17.5,7.1
		c39.5,40.3,79.2,80.3,119.1,120.2c4.4,4.4,6.2,8.7,6.1,14.9c-0.9,144.5-1.6,288.9-2.4,433.4C2244.4,588.2,2244.9,591,2242.8,594.7z
		"/>
	<path class="st2" d="M2206.4,155.6c7.2,7.2,14.4,14.5,21.7,21.7c1.5,1.5,2.1,3.3,2.1,5.4c0,6.5,0,13,0,21.1
		c-9.6-7.7-16.4-15.7-23.9-23c-1.6-1.6-1.7-3.5-1.7-5.5c0-6.3,0-12.6,0-18.8C2205.1,156.2,2205.8,155.9,2206.4,155.6z"/>
	<path class="st2" d="M2204.5,199.8c9.1,9.1,16.5,16.6,23.9,24c1.6,1.6,1.7,3.5,1.7,5.5c0,6.3,0,12.5,0,19
		c-4.3-2.2-23.5-19.6-24.8-22.6c-0.6-1.4-0.8-3.2-0.8-4.8C2204.4,214.7,2204.5,208.5,2204.5,199.8z"/>
	<path class="st2" d="M2205.4,243.1c8.4,8.4,16,16.1,23.6,23.8c1.5,1.6,1.2,3.7,1.2,5.7c0,5.9,0,11.9,0,19c-5.7-2.6-8.7-7-12.3-10.6
		c-14-13.8-14-13.9-13.3-33.6C2204.5,246.5,2204.8,245.6,2205.4,243.1z"/>
	<path class="st2" d="M2009.3,27c1.3-0.3,1.9-0.6,2.5-0.6c20.1-0.6,20.1-0.6,34.5,13.7c3.3,3.3,7,6.1,11.8,10.4
		c-7.7,2.6-13.5,0.8-19,1.7c-6.9,1.1-10.1-3.8-14-7.7c-5-4.9-9.9-9.9-14.8-14.8C2009.9,29,2009.8,28.3,2009.3,27z"/>
	<path class="st2" d="M2227.4,388.7c-6.8-7.3-13.6-14.6-20.5-21.8c-1.7-1.8-2.4-3.8-2.4-6.3c0.1-6.2,0-12.5,0-20.5
		c9.8,7.8,16.9,16,24.5,23.6c1.3,1.3,1.2,3,1.2,4.7c0,6.2,0,12.5,0,18.7C2229.2,387.7,2228.3,388.2,2227.4,388.7z"/>
	<path class="st2" d="M1963.3,27.3c16.4-4.5,28.5,0.9,37.9,13.8c2.4,3.4,6.3,5.6,9.1,10.8c-8,0-14.8,0-21.7,0c-1.8,0-3.2-1-4.4-2.1
		c-6.8-6.8-13.7-13.7-20.4-20.6C1963.2,28.4,1963.3,27.4,1963.3,27.3z"/>
	<path class="st2" d="M2102.4,51c-2.3,0.6-2.6,0.8-2.9,0.8c-21,0.8-21,0.9-36-14.2c-3.1-3.1-7-5.8-9.6-11.2c7.6,0,14.1,0,20.6,0
		c2.1,0,3.9,0.8,5.3,2.2C2087.1,35.6,2094.2,42.8,2102.4,51z"/>
	<path class="st2" d="M2227.5,338.1c-6.8-7.2-13.6-14.5-20.5-21.7c-1.7-1.8-2.7-3.6-2.6-6.2c0.1-6.3,0-12.5,0-20.3
		c9.9,7.3,16.8,15.7,24.4,23.2c1.3,1.2,1.2,3,1.2,4.7c0,6.3,0,12.5,0,18.8C2229.3,337.1,2228.4,337.6,2227.5,338.1z"/>
	<path class="st2" d="M1961.2,51.9c-9.1,0-15.6,0-22.2,0c-1.7,0-3.4-0.2-4.6-1.5c-7.3-7.5-15.4-14.3-23.1-24.1c8.1,0,14.6,0,21.1,0
		c1.7,0,3.3,0.4,4.6,1.6C1944.5,35.3,1952,42.7,1961.2,51.9z"/>
	<path class="st2" d="M2213.3,140.5c-33.8-33.8-67.5-67.5-101.3-101.3c3.1-1.5,4.3,2.4,5.9,4.1c27,26.8,53.9,53.7,80.8,80.5
		c4.2,4.2,8.5,8.5,12.7,12.8C2212.5,137.7,2214.3,138.5,2213.3,140.5z"/>
	<path class="st2" d="M592.1,12.2c-5.1,2.5-9.1,1.7-12.8,1.7C438.4,14,297.4,14,156.5,13.7c-9.2,0-15.3,2.8-21.6,9.2
		C97.1,61.6,59,100,20.8,138.2c-4.9,4.9-6.8,9.7-6.8,16.6c0.9,142.5,1.7,285,2.4,427.4c0,3.7,0.9,7.7-1.4,12.2
		c-3.3-3.4-2.2-6.9-2.3-9.9c-0.2-23.7-0.2-47.4-0.3-71.1c-0.7-119.8-1.3-239.6-2.1-359.4c-0.1-7.2,1.8-12.3,7-17.6
		c39.5-39.4,78.7-79,117.8-118.7c5.2-5.3,10.4-7.9,18.2-7.9c142.2,0.3,284.5,0.2,426.7,0.2C583.4,10.2,587.1,9.2,592.1,12.2z"/>
	<path class="st2" d="M155.5,50.2c7.2-7.2,14.1-13.9,20.8-20.8c2.3-2.3,4.7-3.3,8-3.2c6,0.2,11.9,0,18.9,0
		c-2.3,5.7-6.9,8.6-10.4,12.2c-14.6,14.8-14.6,14.7-35.5,13.2C157,51.6,156.8,51.3,155.5,50.2z"/>
	<path class="st2" d="M52.5,288.7c0,9.4,0.1,16.3-0.1,23.1c0,1.2-0.5,2.8-1.3,3.6c-7.4,7.4-14.3,15.4-23.9,23.1
		c0-8.4-0.1-15.2,0.1-22c0-1.2,0.5-2.8,1.4-3.6C36,305.2,43.4,297.9,52.5,288.7z"/>
	<path class="st2" d="M27.2,389c0-8.4,0-15.2,0-22c0-1.7,0.8-3.2,2-4.4c7.2-7.2,14.4-14.3,23.3-23.3c0,9.2,0,16,0,22.9
		c0,1.7-0.6,3.2-1.9,4.4C43.3,373.6,36.7,381.4,27.2,389z"/>
	<path class="st2" d="M296.1,51.1c8.7-8.4,15.8-15.3,22.9-22.3c1.7-1.7,3.7-2.6,6.2-2.6c6.2,0.1,12.5,0,20.1,0
		c-2.7,5.7-6.8,8.5-10.1,11.9C320.3,53.2,320.3,53.1,296.1,51.1z"/>
	<path class="st2" d="M200.5,49.4c7.2-6.8,14.5-13.6,21.6-20.5c1.8-1.7,3.7-2.7,6.2-2.6c6.3,0.1,12.5,0,21.3,0
		c-8.9,9.7-16.6,17.6-25,24.8c-1.2,1.1-3.8,0.8-5.8,0.8c-5.6,0.1-11.2,0-16.8,0C201.5,51.1,201,50.2,200.5,49.4z"/>
	<path class="st2" d="M245.4,51.9c9.2-9.2,16.6-16.6,24.1-24c1.2-1.2,2.8-1.6,4.6-1.6c6.5,0,13,0,21.1,0
		c-7.6,9.8-15.7,16.6-23.1,24.1c-1.3,1.3-2.9,1.5-4.6,1.5C261.1,51.9,254.5,51.9,245.4,51.9z"/>
	<path class="st2" d="M145.8,39.7c-4.1,7.1-94.6,97.4-101.4,101.3c-0.6-0.8-1.1-1.8-0.2-2.6C77.5,105,110.9,71.6,144.2,38.2
		C144.8,38.7,145.3,39.2,145.8,39.7z"/>
	<path class="st2" d="M27.3,201.2c0-5.9,0-11.9,0-17.8c0-2.4,0.4-4.6,2.2-6.4c7-7,14-14,22.9-22.8c0,9.2,0,16,0,22.8
		c0,1.8-0.8,3.2-2,4.4c-6.9,6.8-13.8,13.5-20.8,20.3C29.5,201.8,28.6,201.4,27.3,201.2z"/>
	<path class="st2" d="M52.1,200.7c1.2,24,1.2,24-13.8,38.9c-2.6,2.6-5.3,5.1-7.9,7.7c-0.6,0.6-1.1,0.8-3-0.4c0-6-0.1-12.8,0.1-19.6
		c0-1.2,0.8-2.6,1.6-3.6c1.2-1.6,2.7-2.9,4.1-4.3C39.1,213.6,44.9,207.8,52.1,200.7z"/>
	<path class="st2" d="M28.7,291.7c-0.8-2.5-1-2.8-1-3.1c-1.5-19.8-1.5-19.8,12.7-33.9c3.5-3.4,7-6.8,12.2-12
		c0,9.1,0.1,15.9-0.1,22.7c0,1.2-0.5,2.8-1.3,3.6C44,276.3,36.8,283.5,28.7,291.7z"/>
	<path class="st2" d="M12,838.4c3,5,2,9,2,12.7c0.1,92.1,0.1,184.2,0.1,276.3c0,39.4,0,78.7,0,118.1c0,2.7,0,5.3,0.1,8
		c0.1,2.4,1.2,3.7,3.7,3.7c3,0,6,0,9,0c259.8,0,519.5,0,779.3,0c4.3,0,8.6-0.9,12.8,0.8c0,3.2-2.4,2.7-4.3,2.8c-2.3,0.1-4.7,0-7,0
		c-261.4,0-522.9,0-784.3,0c-14.6,0-13,1.1-13-12.7c0-132.5,0-264.9,0-397.4C10.3,847.2,9.5,843.5,12,838.4z"/>
	<path class="st2" d="M27.8,1184.6c19.7,19.7,38.8,38.8,58.3,58.3c-6.9,0-14.4,0-21.9,0c-10.3,0-20.6-0.1-30.9,0
		c-3.7,0-5.5-1.2-5.5-5.1C27.9,1219.9,27.8,1202.1,27.8,1184.6z"/>
	<path class="st2" d="M2245.2,839.2c2.7,4,1.6,8.1,1.6,11.9c0.1,121.1,0.1,242.2,0.1,363.3c0,13.3-0.1,26.7,0.1,40
		c0.1,4.6-1.3,7-6.2,6.5c-2-0.2-4,0-6,0c-261.4,0-522.8,0-784.2,0c-3.8,0-7.8,0.9-11.4-0.9c-0.2-3.2,1.9-2.6,3.3-2.7
		c3.3-0.2,6.7-0.1,10-0.1c259.4,0,518.8,0,778.1,0c14,0,12.6,2,12.6-12.9c0-131.1,0-262.2,0.1-393.3
		C2243.2,847.2,2241.8,843,2245.2,839.2z"/>
	<path class="st2" d="M2229.7,1182.1c0,19.7,0,37.9,0,56.1c0,3.4-1.6,4.7-4.9,4.7c-17.9,0-35.8,0-55.1,0c5.5-9,13-14.4,19.2-21
		c6.4-6.8,13-13.3,19.7-19.8C2215.3,1195.8,2221.1,1188.7,2229.7,1182.1z"/>
</g>
</svg>
