<?xml version="1.0" encoding="utf-8"?>
<!-- Generator: Adobe Illustrator 28.0.0, SVG Export Plug-In . SVG Version: 6.00 Build 0)  -->
<svg version="1.1" id="Layer_1" xmlns="http://www.w3.org/2000/svg" xmlns:xlink="http://www.w3.org/1999/xlink" x="0px" y="0px" 
	 viewBox="0 0 1920 94" xml:space="preserve">
<g>
	<path fill="#fefe52" d="M0,49.528c63.488,0,126.976,0.026,190.464-0.071c3.43-0.005,5.855,0.909,8.272,3.39
		c10.231,10.503,20.611,20.864,31.124,31.084c1.459,1.419,3.966,2.487,5.991,2.492c59.822,0.129,119.644,0.13,179.466-0.006
		c2.007-0.005,4.473-1.173,5.942-2.603c10.627-10.342,20.969-20.978,31.63-31.283c1.675-1.619,4.476-2.743,6.823-2.869
		c6.979-0.373,14.003,0.105,20.982-0.268c2.346-0.125,5.159-1.243,6.822-2.867c13.707-13.39,27.21-26.989,40.718-40.581
		C529.51,4.662,530.4,2.992,532.546,0c3.194,3.976,5.156,6.902,7.587,9.364c12.294,12.449,24.626,24.864,37.178,37.05
		c1.767,1.716,4.814,2.975,7.275,2.985c42.658,0.179,85.317,0.173,127.975,0.009c2.321-0.009,5.115-1.229,6.837-2.813
		c2.389-2.197,4.672-3.135,7.907-3.13c60.489,0.085,120.977,0.049,181.466,0.124c2.006,0.003,4.867,0.248,5.859,1.523
		c3.336,4.291,7.573,4.478,12.382,4.474c101.981-0.078,203.962-0.041,305.943-0.129c3.759-0.003,6.497,0.933,9.137,3.728
		c6.962,7.373,14.255,14.434,21.697,21.901c19.745-19.266,39.245-38.293,60.158-58.698c2.872,3.475,5.506,7.086,8.573,10.282
		c6.344,6.612,13.021,12.904,19.344,19.535c2.377,2.493,4.826,3.401,8.27,3.397c79.652-0.097,159.303-0.075,238.955-0.075
		c72.986,0,145.973,0.028,218.959-0.078c3.8-0.006,6.469,1.069,9.104,3.806c8.318,8.643,16.822,17.113,25.479,25.415
		c1.583,1.518,4.217,2.717,6.377,2.736c22.661,0.196,45.324,0.195,67.985,0c2.161-0.019,4.8-1.212,6.38-2.73
		c9.007-8.66,17.672-17.675,26.682-26.332c1.578-1.516,4.208-2.592,6.405-2.689c6.813-0.303,14.354-1.817,20.278,0.52
		c5.708,2.252,9.753,8.715,14.538,13.318c0.815,0.784,1.679,1.518,3.311,2.986c4.686-4.974,9.101-9.926,13.851-14.533
		c1.359-1.319,3.661-2.232,5.574-2.311c6.654-0.277,13.326-0.107,19.991-0.107c0,14.997,0,29.993,0,44.993
		c-681.333,0.003-1362.667,0.003-2044,0C0,79.521,0,64.524,0,49.528z"/>
	<path fill="#fefe52" d="M592.218,42.169c0-7.592,0-14.849,0-22.373c11.131,0,22.049,0,33.376,0c0,7.253,0,14.631,0,22.373
		C614.712,42.169,603.676,42.169,592.218,42.169z"/>
	<path fill="#fefe52" d="M634.096,42.223c0-7.635,0-14.773,0-22.304c11.121,0,22.159,0,33.552,0c0,7.244,0,14.619,0,22.304
		C656.6,42.223,645.565,42.223,634.096,42.223z"/>
	<path fill="#fefe52" d="M180.825,20.603c-7.068,7.046-13.986,13.942-20.485,20.422c-6.581-6.569-13.569-13.545-20.457-20.422
		C153.081,20.603,166.922,20.603,180.825,20.603z"/>
	<path fill="#fefe52" d="M1372.74,43.655c-2.976-1.519-5.532-2.213-7.249-3.81c-6.394-5.946-12.512-12.188-19.648-19.219c9.782,0,18.207,0,26.898,0
		C1372.74,27.767,1372.74,34.829,1372.74,43.655z"/>
	<path fill="#fefe52" d="M1056.272,32.756c3.148,0,6.076,0,9.367,0c0,3.039,0,6.084,0,9.455c-2.998,0-6.043,0-9.367,0
		C1056.272,39.202,1056.272,36.271,1056.272,32.756z"/>
	<path fill="#fefe52" d="M1056.182,30.144c0-3.172,0-6.099,0-9.321c3.221,0,6.266,0,9.567,0c0,3.074,0,6.004,0,9.321
		C1062.782,30.144,1059.74,30.144,1056.182,30.144z"/>
	<path fill="#fefe52" d="M1708.182,42.714c-0.394-1.3-1.094-2.59-1.135-3.901c-0.559-17.499-0.496-17.826,2.615-19.258c0,7.694,0,15.235,0,22.776
		C1709.169,42.458,1708.675,42.586,1708.182,42.714z"/>
	<path fill="#fefe52" d="M1715.662,42.5c-3.111-1.432-3.174-1.76-2.615-19.258c0.042-1.311,0.742-2.601,1.135-3.901
		c0.493,0.128,0.987,0.256,1.48,0.384C1715.662,27.265,1715.662,34.806,1715.662,42.5z"/>
	<path fill="#fefe52" d="M1721.432,42.358c-3.234-1.367-3.658-20.02,0-23.212C1721.432,27.186,1721.432,34.755,1721.432,42.358z"/>
	<path fill="#fefe52" d="M1725.333,42.492c0-7.689,0-15.229,0-22.77c0.551-0.118,1.102-0.236,1.653-0.354c0.338,1.462,0.947,2.919,0.973,4.386
		C1728.264,41.18,1728.241,41.181,1725.333,42.492z"/>
</g>
</svg>
