<?xml version="1.0" encoding="utf-8"?>
<!-- Generator: Adobe Illustrator 28.0.0, SVG Export Plug-In . SVG Version: 6.00 Build 0)  -->
<svg version="1.1" id="Layer_1" xmlns="http://www.w3.org/2000/svg" xmlns:xlink="http://www.w3.org/1999/xlink" x="0px" y="0px"
	 viewBox="0 0 2044 71.297" style="enable-background:new 0 0 2044 71.297;" xml:space="preserve">
<g>
	<path fill="none" class="st0" d="M2044,27.303c-55.996,0-111.992,0-167.987-0.002c-1.5,0-3.026,0.156-4.495-0.062
		c-20.338-3.024-20.886-2.858-35.262,11.514c-1.296,1.296-2.417,2.886-3.942,3.805c-1.984,1.195-4.286,2.619-6.458,2.631
		c-31.331,0.168-62.662,0.155-93.993,0.027c-2.142-0.009-4.604-0.81-6.362-2.038c-7.767-5.428-15.383-11.079-22.956-16.778
		c-11.536-8.682-22.992-17.47-34.726-26.399c-8.038,8.099-15.693,15.986-23.595,23.616c-1.474,1.424-3.942,2.577-5.953,2.579
		c-126.159,0.121-252.318,0.12-378.477,0.002c-2.018-0.002-4.434-1.155-5.973-2.539c-3.673-3.305-6.932-7.07-11.033-11.355
		c-3.237,3.585-6.054,6.417-8.53,9.522c-2.835,3.554-6.219,4.598-10.785,4.587c-62.996-0.16-125.992-0.081-188.988-0.182
		c-3.449-0.006-5.867,0.944-8.258,3.431c-7.505,7.808-15.178,15.462-22.999,22.953c-1.483,1.42-3.941,2.574-5.953,2.58
		c-44.497,0.145-88.994,0.144-133.491,0.002c-2.019-0.006-4.493-1.12-5.973-2.536c-7.823-7.489-15.487-15.151-23.001-22.951
		c-2.376-2.467-4.762-3.515-8.237-3.486c-19.997,0.168-39.998,0.187-59.994-0.053c-2.46-0.03-5.425-1.337-7.25-3.029
		c-6.716-6.228-12.946-12.977-19.607-19.267c-1.487-1.404-3.977-2.45-6.012-2.462c-28.164-0.158-56.33-0.159-84.494,0.002
		c-2.028,0.012-4.498,1.1-5.991,2.507c-6.426,6.054-12.703,12.283-18.741,18.723c-2.622,2.796-5.356,3.742-9.134,3.737
		c-81.328-0.1-162.657-0.046-243.985-0.166c-3.979-0.006-6.935,0.843-9.573,3.893c-2.992,3.458-6.433,6.528-10.115,10.201
		c-3.122-3.352-5.903-6.016-8.298-8.989c-3.039-3.771-6.543-5.736-11.577-5.157c-1.446,0.166-3.464-1.016-4.572-2.19
		c-4.193-4.445-8.121-9.141-12.535-14.187c-5.171,5.387-9.095,9.238-12.727,13.348c-2.179,2.465-4.584,3.244-7.83,3.237
		c-44.164-0.097-88.328-0.032-132.492-0.13c-3.391-0.008-6.214,0.442-8.246,3.366c-2.217,3.191-5.313,3.791-9.081,3.775
		c-31.664-0.135-63.329-0.137-94.993,0.006c-3.638,0.017-6.504-0.68-8.627-3.674c-2.024-2.854-4.75-3.555-8.202-3.487
		C21.668,26.438,10.833,26.303,0,26.303 M542.767,5.644c-35.089,0-69.784,0-104.365,0c0,5.068,0,9.788,0,14.405
		c34.979,0,69.556,0,104.365,0C542.767,15.203,542.767,10.605,542.767,5.644z M1240.159,5.709c-9.613,0-18.945,0-27.84,0
		c4.613,4.715,9.231,9.435,13.884,14.19C1230.693,15.335,1235.319,10.631,1240.159,5.709z M1601.193,20.072c2.791,0,5.057,0,7.534,0
		c0-4.947,0-9.662,0-14.444c-2.659,0-5.036,0-7.534,0C1601.193,10.543,1601.193,15.133,1601.193,20.072z M1588.267,19.986
		c2.653,0,5.027,0,7.385,0c0-5.039,0-9.756,0-14.46c-2.618,0-4.886,0-7.385,0C1588.267,10.464,1588.267,15.179,1588.267,19.986z
		 M1483.488,5.547c-0.333,0-0.667,0-1,0c0,4.842,0,9.684,0,14.525c0.333,0.003,0.667,0.006,1,0.008
		C1483.488,15.236,1483.488,10.392,1483.488,5.547z M1479.53,5.538c-0.312,0.009-0.623,0.018-0.935,0.027c0,4.843,0,9.687,0,14.53
		c0.312-0.013,0.623-0.026,0.935-0.039C1479.53,15.217,1479.53,10.378,1479.53,5.538z M1475.549,5.546
		c-0.333,0.005-0.667,0.011-1,0.016c0,4.845,0,9.69,0,14.536c0.333-0.008,0.667-0.016,1-0.023
		C1475.549,15.232,1475.549,10.389,1475.549,5.546z M1471.549,5.546c-0.333,0.005-0.667,0.011-1,0.016c0,4.845,0,9.69,0,14.536
		c0.333-0.008,0.667-0.016,1-0.023C1471.549,15.232,1471.549,10.389,1471.549,5.546z"/>
	<path fill="#fefe52" d="M0,26.303c10.833,0,21.668,0.135,32.496-0.078c3.452-0.068,6.178,0.633,8.202,3.487c2.124,2.994,4.989,3.691,8.627,3.674
		c31.664-0.144,63.329-0.141,94.993-0.006c3.767,0.016,6.863-0.585,9.081-3.775c2.032-2.924,4.856-3.374,8.246-3.366
		c44.164,0.098,88.328,0.033,132.492,0.13c3.246,0.007,5.651-0.772,7.83-3.237c3.632-4.11,7.557-7.961,12.727-13.348
		c4.415,5.046,8.342,9.742,12.535,14.187c1.108,1.175,3.126,2.357,4.572,2.19c5.034-0.579,8.539,1.386,11.577,5.157
		c2.396,2.973,5.176,5.637,8.298,8.989c3.682-3.673,7.123-6.743,10.115-10.201c2.638-3.05,5.594-3.898,9.573-3.893
		c81.328,0.12,162.657,0.066,243.985,0.166c3.778,0.005,6.512-0.941,9.134-3.737c6.038-6.44,12.315-12.669,18.741-18.723
		c1.493-1.407,3.964-2.496,5.991-2.507c28.164-0.161,56.33-0.161,84.494-0.002c2.035,0.011,4.525,1.058,6.012,2.462
		c6.661,6.29,12.891,13.039,19.607,19.267c1.825,1.692,4.791,2.999,7.25,3.029c19.996,0.241,39.997,0.221,59.994,0.053
		c3.475-0.029,5.861,1.02,8.237,3.486c7.514,7.8,15.178,15.462,23.001,22.951c1.479,1.416,3.953,2.53,5.973,2.536
		c44.497,0.142,88.994,0.143,133.491-0.002c2.012-0.007,4.47-1.16,5.953-2.58c7.821-7.491,15.493-15.145,22.999-22.953
		c2.391-2.487,4.809-3.436,8.258-3.431c62.996,0.102,125.992,0.022,188.988,0.182c4.565,0.012,7.95-1.033,10.785-4.587
		c2.476-3.104,5.293-5.937,8.53-9.522c4.101,4.284,7.36,8.05,11.033,11.355c1.539,1.384,3.955,2.538,5.973,2.539
		c126.159,0.118,252.318,0.118,378.477-0.002c2.011-0.002,4.479-1.155,5.953-2.579c7.902-7.63,15.556-15.517,23.595-23.616
		c11.734,8.929,23.19,17.717,34.726,26.399c7.573,5.699,15.189,11.35,22.956,16.778c1.757,1.228,4.22,2.03,6.362,2.038
		c31.331,0.128,62.663,0.141,93.993-0.027c2.172-0.012,4.474-1.435,6.458-2.631c1.525-0.919,2.646-2.509,3.942-3.805
		c14.375-14.371,14.924-14.538,35.262-11.514c1.469,0.218,2.995,0.062,4.495,0.062c55.996,0.002,111.992,0.002,167.987,0.002
		c0,14.663,0,29.327,0,43.992C1362.667,71.298,681.333,71.298,0,71.295C0,56.296,0,41.3,0,26.303z"/>
	<path fill="#fefe52" d="M542.767,5.644c0,4.96,0,9.559,0,14.405c-34.809,0-69.386,0-104.365,0c0-4.617,0-9.338,0-14.405
		C472.983,5.644,507.678,5.644,542.767,5.644z"/>
	<path fill="#fefe52" d="M1240.159,5.709c-4.84,4.922-9.466,9.625-13.956,14.19c-4.653-4.755-9.271-9.476-13.884-14.19
		C1221.215,5.709,1230.546,5.709,1240.159,5.709z"/>
	<path fill="#fefe52" d="M1601.193,20.072c0-4.939,0-9.529,0-14.444c2.497,0,4.875,0,7.534,0c0,4.782,0,9.497,0,14.444
		C1606.25,20.072,1603.984,20.072,1601.193,20.072z"/>
	<path fill="#fefe52" d="M1588.267,19.986c0-4.807,0-9.522,0-14.46c2.499,0,4.767,0,7.385,0c0,4.705,0,9.422,0,14.46
		C1593.294,19.986,1590.919,19.986,1588.267,19.986z"/>
	<path fill="#fefe52" d="M1483.488,5.547c0,4.845,0,9.689,0,14.533c-0.333-0.003-0.667-0.006-1-0.008c0-4.842,0-9.683,0-14.525
		C1482.822,5.547,1483.155,5.547,1483.488,5.547z"/>
	<path fill="#fefe52" d="M1479.53,5.538c0,4.839,0,9.679,0,14.518c-0.312,0.013-0.623,0.026-0.935,0.039c0-4.843,0-9.687,0-14.53
		C1478.906,5.557,1479.218,5.548,1479.53,5.538z"/>
	<path fill="#fefe52" d="M1475.549,5.546c0,4.843,0,9.686,0,14.529c-0.333,0.008-0.667,0.016-1,0.023c0-4.845,0-9.69,0-14.536
		C1474.883,5.557,1475.216,5.551,1475.549,5.546z"/>
	<path fill="#fefe52" d="M1471.549,5.546c0,4.843,0,9.686,0,14.529c-0.333,0.008-0.667,0.016-1,0.023c0-4.845,0-9.69,0-14.536
		C1470.883,5.557,1471.216,5.551,1471.549,5.546z"/>
</g>
</svg>
